<?xml version="1.0" encoding="UTF-8"?>
<svg id="Camada_1" xmlns="http://www.w3.org/2000/svg" version="1.1" viewBox="0 0 48 46">
  <!-- Generator: Adobe Illustrator 30.3.0, SVG Export Plug-In . SVG Version: 2.1.3 Build 182)  -->
  <defs>
    <style>
      .st0 {
        fill: #f46a20;
      }

      .st1 {
        fill: #fff;
      }

      .st2 {
        fill: #011820;
      }
    </style>
  </defs>
  <rect class="st2" width="48" height="46"/>
  <g>
    <g>
      <path class="st1" d="M5.4,17.14h5.39v18.6h-5.39v-18.6Z"/>
      <path class="st1" d="M34.82,25.09v10.65h-5.39v-9.82c0-3.01-1.38-4.39-3.77-4.39-2.59,0-4.46,1.59-4.46,5.01v9.2h-5.39V10.09h5.39v8.99c1.45-1.45,3.53-2.21,5.91-2.21,4.39,0,7.71,2.56,7.71,8.23Z"/>
    </g>
    <path class="st0" d="M5.18,12.89c0-1.51,1.29-2.8,2.91-2.8s2.91,1.23,2.91,2.75c0,1.63-1.23,2.91-2.91,2.91s-2.91-1.29-2.91-2.86Z"/>
    <path class="st0" d="M36.99,33.06c0-1.51,1.29-2.8,2.91-2.8s2.91,1.23,2.91,2.75c0,1.63-1.23,2.91-2.91,2.91s-2.91-1.29-2.91-2.86Z"/>
  </g>
</svg>